<svg width="17" height="17" viewBox="0 0 17 17" fill="none" xmlns="http://www.w3.org/2000/svg">
<path d="M14.7277 0H1.47227C1.0818 0 0.70732 0.155113 0.431217 0.431217C0.155113 0.70732 0 1.0818 0 1.47227V14.7277C0 15.1182 0.155113 15.4927 0.431217 15.7688C0.70732 16.0449 1.0818 16.2 1.47227 16.2H14.7277C15.1182 16.2 15.4927 16.0449 15.7688 15.7688C16.0449 15.4927 16.2 15.1182 16.2 14.7277V1.47227C16.2 1.0818 16.0449 0.70732 15.7688 0.431217C15.4927 0.155113 15.1182 0 14.7277 0ZM5.12102 13.2545H2.94859V6.26296H5.12102V13.2545ZM4.01251 5.26895C3.76196 5.26915 3.51698 5.19504 3.30856 5.05599C3.10014 4.91694 2.93764 4.71919 2.84162 4.48778C2.7456 4.25636 2.72038 4.00166 2.76913 3.7559C2.81789 3.51014 2.93844 3.28437 3.11553 3.10713C3.29263 2.9299 3.51831 2.80917 3.76403 2.76021C4.00975 2.71126 4.26446 2.73628 4.49596 2.83212C4.72745 2.92795 4.92533 3.09029 5.06454 3.2986C5.20376 3.50691 5.27807 3.75183 5.27807 4.00238C5.27807 4.33812 5.14477 4.66012 4.90746 4.89762C4.67015 5.13512 4.34825 5.26868 4.01251 5.26895ZM13.2575 13.2575H11.0871V9.85598C11.0871 9.04537 11.0719 8.00273 9.95832 8.00273C8.82752 8.00273 8.65425 8.88528 8.65425 9.79721V13.2555H6.48486V6.26397H8.56914V7.21948H8.59852C8.80696 6.8631 9.10814 6.56992 9.47 6.37115C9.83185 6.17238 10.2408 6.07546 10.6534 6.0907C12.8532 6.0907 13.2595 7.53865 13.2595 9.42028L13.2575 13.2575Z" fill="#8D8D8D"/>
</svg>
