<svg
  width="18"
  height="18"
  viewBox="0 0 18 18"
  fill="none"
  xmlns="http://www.w3.org/2000/svg"
>
<path
    d="M2.00482 13.5355L1.9192 13.3978C1.125 12.1206 0.66526 10.614 0.66526 9.00005C0.66526 6.69961 1.59845 4.61527 3.1066 3.10712C4.61465 1.59893 6.69817 0.665773 8.99954 0.665773C11.3 0.665773 13.3843 1.59897 14.8925 3.10712C16.4007 4.6145 17.3338 6.6987 17.3338 9.00005C17.3338 10.6146 16.8749 12.1218 16.08 13.3984L15.9943 13.5359L15.9098 13.3977C15.2407 12.3038 14.318 11.3807 13.2242 10.7104L13.2242 10.7104C12.4775 10.2523 11.6508 9.91257 10.7708 9.71588L10.5511 9.66677L10.7349 9.53667C10.8762 9.43657 11.0084 9.32542 11.1301 9.20378L11.1301 9.20375C11.6757 8.65864 12.0129 7.90473 12.0129 7.07305C12.0129 6.24201 11.6753 5.48925 11.1289 4.94232C11.1289 4.9423 11.1288 4.94229 11.1288 4.94228L11.1996 4.8716C10.6365 4.30851 9.85808 3.95949 8.99988 3.95949C8.14114 3.95949 7.36327 4.30848 6.79844 4.8728L2.00482 13.5355ZM2.00482 13.5355L2.08943 13.3972M2.00482 13.5355L2.08943 13.3972M2.08943 13.3972C2.75852 12.3034 3.68107 11.3802 4.77498 10.7099L4.72273 10.6246L2.08943 13.3972ZM15.2927 2.70723L15.2928 2.70725C16.9032 4.31772 17.9 6.54289 17.9 9.00033C17.9 11.4577 16.9034 13.6829 15.2928 15.2934L15.3635 15.3641L15.2928 15.2934C13.6823 16.9039 11.4571 17.9 8.99968 17.9C6.54234 17.9 4.31775 16.9039 2.7066 15.2934C1.09614 13.6829 0.1 11.4578 0.1 9.00033C0.1 6.54297 1.09611 4.31771 2.7066 2.70725C4.31707 1.09678 6.54224 0.1 8.99968 0.1C11.457 0.1 13.6823 1.09611 15.2927 2.70723ZM15.5612 14.1373H15.6826L15.6011 13.9891C14.9687 12.8402 14.0449 11.8739 12.9309 11.191C11.7877 10.4898 10.4407 10.0855 8.99923 10.0855C7.55793 10.0855 6.21098 10.4898 5.06822 11.191C3.9542 11.8739 3.03041 12.8402 2.39808 13.9891L2.36644 14.0466L2.40658 14.0985C2.62269 14.3779 2.85626 14.6434 3.10609 14.8927C4.61424 16.4008 6.69858 17.334 8.99903 17.334C11.3004 17.334 13.3846 16.4009 14.892 14.8927C15.1301 14.6545 15.3536 14.4024 15.5612 14.1373ZM7.26849 8.80335L7.2685 8.80336C7.71134 9.2462 8.32358 9.52028 8.9993 9.52028C9.67503 9.52028 10.2873 9.24604 10.7301 8.80338L10.7301 8.80336C11.1729 8.36052 11.447 7.74827 11.447 7.07202C11.447 6.39585 11.1735 5.78344 10.7313 5.34123C10.2891 4.89903 9.67615 4.62485 8.9993 4.62485C8.32312 4.62485 7.71014 4.89905 7.26796 5.34122L7.33867 5.41193L7.26796 5.34122C6.82577 5.78341 6.55158 6.39635 6.55158 7.07257C6.55158 7.7483 6.82583 8.36053 7.26849 8.80335Z"
    fill="#B3B3B3"
    stroke="#B3B3B3"
    stroke-width="0.2"
  />
</svg>
