<svg width="17" height="18" viewBox="0 0 17 18" fill="none" xmlns="http://www.w3.org/2000/svg">
<path d="M13.5087 2.50937C12.8501 2.50937 12.3102 3.04928 12.3102 3.70794C12.3102 4.36659 12.8501 4.9065 13.5087 4.9065C14.1674 4.9065 14.7073 4.36659 14.7073 3.70794C14.7073 3.04928 14.1674 2.50937 13.5087 2.50937ZM13.5087 4.25784C13.2097 4.25784 12.9743 4.01021 12.9743 3.72343C12.9743 3.42279 13.2081 3.18902 13.5087 3.18902C13.8078 3.18902 14.0431 3.43664 14.0431 3.72343C14.0431 4.02248 13.7955 4.25784 13.5087 4.25784Z" fill="#999999" stroke="#999999" stroke-width="0.2" stroke-linejoin="round"/>
<path d="M16.2066 7.58926C16.2069 7.58664 16.2071 7.58399 16.2072 7.58131L16.4238 2.24376C16.4238 2.24367 16.4238 2.24357 16.4238 2.24347C16.4407 1.88852 16.3047 1.55229 16.0388 1.28632L15.9681 1.35703L16.0388 1.28632C15.7896 1.03714 15.4383 0.884353 15.0971 0.901272C15.0969 0.90128 15.0968 0.901288 15.0966 0.901296L9.75929 1.11787V1.11786L9.75748 1.11796C9.4719 1.13476 9.20064 1.25224 9.01183 1.44107L0.548217 9.90468C0.102353 10.3505 0.126996 11.1103 0.610109 11.5934L5.73156 16.7149C5.98098 16.9643 6.29987 17.1 6.62236 17.1C6.90738 17.1 7.19837 16.9995 7.40619 16.7754L15.8656 8.31597C16.0888 8.12529 16.1889 7.85316 16.2066 7.58926ZM15.5434 7.54614C15.5434 7.67052 15.4949 7.76898 15.4198 7.84487C15.4191 7.84555 15.4184 7.84625 15.4177 7.84695L6.95409 16.3106C6.77023 16.4944 6.43199 16.4825 6.19818 16.2488C6.19815 16.2487 6.19811 16.2487 6.19808 16.2487L1.07673 11.1118L1.07662 11.1117C0.842797 10.8778 0.830846 10.5395 1.01473 10.3556L9.49377 1.90737L9.4939 1.90724C9.56531 1.83583 9.66394 1.79574 9.78671 1.78158L15.1214 1.5651L15.1214 1.56519L15.1256 1.56484C15.2749 1.5524 15.4486 1.62845 15.5727 1.75251C15.6918 1.87168 15.7595 2.04609 15.76 2.20595L15.5435 7.54208L15.5434 7.54208V7.54614Z" fill="#999999" stroke="#999999" stroke-width="0.2" stroke-linejoin="round"/>
</svg>
