<svg width="23" height="17" viewBox="0 0 23 17" fill="none" xmlns="http://www.w3.org/2000/svg">
<path d="M9.73707 7.84768C10.1878 8.27223 10.7835 8.50865 11.4027 8.50865C12.0219 8.50865 12.6177 8.27223 13.0683 7.84768L21.2268 0.184269C20.9351 0.0631166 20.6225 0.000505802 20.3066 0H2.49156C2.19215 0.00137312 1.89563 0.0585533 1.61719 0.168611L9.73707 7.84768Z" fill="#8D8D8D"/>
<path d="M14.1785 9.03326C13.4257 9.73853 12.4323 10.1303 11.4007 10.1287C10.3692 10.1271 9.377 9.73239 8.62632 9.02484L0.388426 1.24219C0.178603 1.6047 0.0669409 2.01567 0.0644531 2.43452V13.7713C0.0644531 14.4155 0.32038 15.0334 0.775947 15.489C1.23151 15.9446 1.8494 16.2005 2.49367 16.2005H20.3039C20.9482 16.2005 21.5661 15.9446 22.0216 15.489C22.4772 15.0334 22.7331 14.4155 22.7331 13.7713V2.43452C22.7306 2.03037 22.6258 1.63344 22.4284 1.28072L14.1785 9.03326Z" fill="#8D8D8D"/>
</svg>
