<svg width="15" height="15" viewBox="0 0 15 15" fill="none" xmlns="http://www.w3.org/2000/svg">
<path d="M11.0552 3.00391C10.894 3.00391 10.7365 3.05169 10.6024 3.14122C10.4684 3.23075 10.364 3.35801 10.3023 3.50689C10.2406 3.65577 10.2244 3.8196 10.2559 3.97765C10.2873 4.13571 10.365 4.28089 10.4789 4.39484C10.5929 4.50879 10.7381 4.58639 10.8962 4.61783C11.0543 4.64927 11.2182 4.63313 11.3671 4.57146C11.516 4.5098 11.6433 4.40536 11.7329 4.27137C11.8224 4.13738 11.8702 3.97985 11.8702 3.8187C11.8702 3.6026 11.7844 3.39536 11.6315 3.24255C11.4787 3.08975 11.2714 3.00391 11.0552 3.00391Z" fill="#1C70B6"/>
<path d="M7.42989 4.04883C6.75249 4.04883 6.0903 4.24939 5.52706 4.62514C4.96382 5.00089 4.52483 5.53497 4.2656 6.15982C4.00637 6.78468 3.93854 7.47225 4.07069 8.1356C4.20285 8.79894 4.52905 9.40826 5.00805 9.8865C5.48704 10.3647 6.09731 10.6904 6.7617 10.8224C7.42608 10.9543 8.11474 10.8866 8.74057 10.6278C9.36641 10.369 9.90132 9.93066 10.2777 9.3683C10.654 8.80595 10.8549 8.1448 10.8549 7.46846C10.8538 6.56184 10.4926 5.69266 9.85056 5.05158C9.20847 4.41051 8.33793 4.04989 7.42989 4.04883ZM7.42989 9.65902C6.99595 9.65902 6.57177 9.53054 6.21096 9.28984C5.85016 9.04914 5.56895 8.70702 5.40289 8.30675C5.23683 7.90648 5.19339 7.46603 5.27804 7.0411C5.3627 6.61617 5.57165 6.22585 5.87849 5.9195C6.18533 5.61314 6.57626 5.40451 7.00186 5.31999C7.42745 5.23547 7.86859 5.27885 8.26949 5.44464C8.67039 5.61044 9.01305 5.89121 9.25413 6.25145C9.49521 6.61168 9.62389 7.03521 9.62389 7.46846C9.6223 8.04894 9.39064 8.60521 8.97953 9.01567C8.56841 9.42614 8.01128 9.65744 7.42989 9.65902Z" fill="#1C70B6"/>
<path d="M10.1489 14.4126H4.59695C3.48928 14.4113 2.42736 13.9713 1.64412 13.1893C0.860875 12.4073 0.420269 11.3471 0.418945 10.2411V4.69584C0.420269 3.59 0.860908 2.52985 1.64418 1.74799C2.42745 0.966141 3.48937 0.526448 4.59695 0.525391H10.1499C11.2574 0.526711 12.3192 0.966489 13.1024 1.74829C13.8856 2.53008 14.3264 3.59008 14.3279 4.69584V10.2401C14.3266 11.3461 13.886 12.4063 13.1028 13.1883C12.3195 13.9703 11.2576 14.4103 10.1499 14.4116M4.59695 1.83134C3.83619 1.83213 3.10681 2.13415 2.56878 2.67115C2.03075 3.20815 1.728 3.93628 1.72694 4.69584V10.2401C1.72774 10.9999 2.03037 11.7283 2.56843 12.2655C3.10649 12.8027 3.83602 13.1048 4.59695 13.1056H10.1499C10.9109 13.1048 11.6404 12.8027 12.1785 12.2655C12.7165 11.7283 13.0192 10.9999 13.0199 10.2401V4.69584C13.0192 3.9362 12.7165 3.20791 12.1784 2.67086C11.6403 2.1338 10.9108 1.83187 10.1499 1.83134H4.59695Z" fill="#1C70B6"/>
</svg>
