<svg width="17" height="16" viewBox="0 0 17 16" fill="none" xmlns="http://www.w3.org/2000/svg">
<path d="M0.266443 5.31377H3.59693V15.9989H0.266443V5.31377ZM1.93168 0.00332631C2.31312 0.00398507 2.6858 0.11758 3.00257 0.329733C3.31934 0.541887 3.56598 0.843073 3.71129 1.1952C3.8566 1.54732 3.89405 1.93456 3.81891 2.30794C3.74377 2.68132 3.55941 3.02406 3.28915 3.29281C3.01889 3.56156 2.67487 3.74425 2.3006 3.81777C1.92634 3.89128 1.53864 3.85233 1.18656 3.70583C0.83447 3.55933 0.533809 3.31187 0.322601 2.99474C0.111393 2.67761 -0.000872705 2.30506 5.10867e-06 1.92422C0.000150627 1.6712 0.0502461 1.42068 0.147428 1.187C0.24461 0.953321 0.386973 0.741057 0.566375 0.562348C0.745777 0.383639 0.958701 0.24199 1.19297 0.145498C1.42724 0.0490066 1.67826 -0.000434171 1.93168 2.87237e-06" fill="white"/>
<path d="M5.68359 5.31202H8.87531V6.77514H8.9186C9.23838 6.22991 9.70027 5.78147 10.2551 5.47757C10.8099 5.17366 11.4369 5.02566 12.0692 5.04933C15.4375 5.04933 16.0592 7.26616 16.0592 10.1392V15.9994H12.7331V10.8042C12.7331 9.56392 12.7087 7.97112 11.0035 7.97112C9.27274 7.97112 9.0052 9.32118 9.0052 10.7134V15.9994H5.68359V5.31202Z" fill="white"/>
</svg>
