<svg
  width="13"
  height="18"
  viewBox="0 0 13 18"
  fill="none"
  xmlns="http://www.w3.org/2000/svg"
>
<path
    d="M6.46714 16.8765C6.51978 16.9538 6.60681 17 6.6997 17C6.79271 17 6.87974 16.9538 6.93238 16.8765C6.96412 16.8275 10.2957 11.8722 11.4839 9.87724C12.0682 8.94002 12.3844 7.85818 12.3975 6.75088C12.3955 5.22622 11.7945 3.76452 10.7262 2.6866C9.65795 1.60867 8.20955 1.002 6.69876 1C5.18792 1.00201 3.73947 1.60856 2.67131 2.6866C1.60316 3.76464 1.00198 5.22628 1 6.75088C1.01349 7.85738 1.32968 8.93856 1.91367 9.87524C3.10758 11.8702 6.43344 16.8253 6.46713 16.8762L6.46714 16.8765ZM6.69882 1.56582C8.06093 1.56783 9.36675 2.11478 10.3299 3.08668C11.2931 4.0587 11.835 5.37647 11.837 6.751C11.8229 7.75327 11.5344 8.73212 11.0037 9.57926C10.0022 11.2536 7.47793 15.0474 6.70618 16.2068C5.92886 15.0434 3.40263 11.2534 2.40865 9.57926H2.40854C1.8725 8.73366 1.5789 7.75473 1.56032 6.751C1.56231 5.37644 2.10431 4.05867 3.06741 3.08668C4.03061 2.11475 5.33644 1.56782 6.69851 1.56582H6.69882Z"
    fill="#999999"
    stroke="#999999"
    stroke-width="0.2"
    stroke-linejoin="round"
  />
<path
    d="M6.66251 7.85854C7.26319 7.85854 7.83937 7.61773 8.2641 7.18911C8.68893 6.7604 8.92755 6.17905 8.92755 5.57287C8.92755 4.9666 8.68893 4.38524 8.2641 3.95653C7.83937 3.52792 7.26319 3.28711 6.66251 3.28711C6.06183 3.28711 5.48564 3.52792 5.06091 3.95653C4.63609 4.38524 4.39746 4.9666 4.39746 5.57287C4.39829 6.17876 4.6372 6.75974 5.06183 7.18818C5.4864 7.61663 6.06202 7.8577 6.66251 7.85854ZM6.66251 3.75989V3.75998C7.13893 3.75998 7.59585 3.95097 7.93275 4.29087C8.26964 4.63085 8.4589 5.09195 8.4589 5.57282C8.4589 6.0536 8.26964 6.5147 7.93275 6.85468C7.59585 7.19465 7.13893 7.38564 6.66251 7.38564C6.18609 7.38564 5.72917 7.19465 5.39227 6.85468C5.05537 6.5147 4.86612 6.0536 4.86612 5.57282C4.86649 5.09214 5.05593 4.63123 5.39274 4.29135C5.72954 3.95154 6.18618 3.76039 6.66251 3.76V3.75989Z"
    fill="#999999"
    stroke="#999999"
    stroke-width="0.2"
    stroke-linejoin="round"
  />
</svg>
