<svg width="18" height="16" viewBox="0 0 18 16" fill="none" xmlns="http://www.w3.org/2000/svg">
<path d="M0.693291 7.96185L1.84918 6.96488V15.5805C1.84918 15.8119 2.0367 16 2.2687 16H15.3239C15.5559 16 15.7434 15.8122 15.7434 15.5805L15.7431 6.96563L16.8987 7.96207C16.978 8.03053 17.0757 8.06388 17.1725 8.06388C17.2898 8.06388 17.4075 8.01444 17.49 7.91849C17.6415 7.74325 17.6216 7.4782 17.4464 7.32666L9.07042 0.101588C8.91302 -0.0338625 8.67957 -0.0338625 8.52218 0.101588L0.14549 7.32719C-0.0297428 7.47872 -0.0496418 7.74319 0.1019 7.91901C0.253437 8.09395 0.517182 8.11221 0.693291 7.96185ZM8.79588 0.972606L14.904 6.24195V15.1609L2.68835 15.1606V6.24165L8.79588 0.972606Z" fill="#B3B3B3"/>
</svg>
