<svg width="22" height="22" viewBox="0 0 22 22" fill="none" xmlns="http://www.w3.org/2000/svg">
<path fill-rule="evenodd" clip-rule="evenodd" d="M11 1.15821C16.4357 1.15821 20.8418 5.56461 20.8418 11C20.8418 16.4354 16.4354 20.8418 11 20.8418C5.56461 20.8418 1.15821 16.4354 1.15821 11C1.15821 5.56461 5.56461 1.15821 11 1.15821ZM22 11C22 4.92511 17.0751 0 11 0C4.92491 0 0 4.92491 0 11C0 17.0751 4.92491 22 11 22C17.0751 22 22 17.0751 22 11Z" fill="#363E48"/>
<path fill-rule="evenodd" clip-rule="evenodd" d="M13.725 11.4092C13.951 11.1832 13.951 10.8164 13.725 10.5904L10.2514 7.11678C10.0252 6.89076 9.65863 6.89076 9.4324 7.11678C9.20657 7.3428 9.20657 7.70953 9.4324 7.93556L12.4968 10.9998L9.4324 14.064C9.20657 14.2901 9.20657 14.6568 9.4324 14.8828C9.65861 15.1088 10.0252 15.1088 10.2514 14.8828L13.725 11.4092Z" fill="#363E48"/>
</svg>
