<svg
  width="18"
  height="15"
  viewBox="0 0 18 15"
  fill="none"
  xmlns="http://www.w3.org/2000/svg"
>
<path
    d="M17.7971 2.16832C17.2505 2.40245 16.6761 2.56585 16.088 2.65456C16.364 2.60763 16.7661 2.11141 16.9281 1.91073C17.1809 1.60544 17.3736 1.25516 17.4961 0.878349C17.5101 0.848396 17.5211 0.811454 17.4961 0.789489C17.4814 0.783361 17.4655 0.780798 17.4497 0.782013C17.4339 0.783229 17.4186 0.788187 17.4051 0.796478C16.7648 1.13821 16.0841 1.39849 15.3791 1.57126C15.3547 1.57869 15.3288 1.57917 15.3043 1.57264C15.2797 1.56611 15.2574 1.55283 15.2401 1.53432C15.1856 1.46947 15.1261 1.40904 15.0621 1.3536C14.7696 1.10233 14.4383 0.900022 14.0811 0.754544C13.6056 0.562561 13.0929 0.479978 12.5811 0.512924C12.082 0.545114 11.5953 0.68115 11.1521 0.912296C10.7078 1.14361 10.3157 1.46336 10.0001 1.85182C9.67182 2.25463 9.43657 2.72473 9.31106 3.22866C9.20379 3.70586 9.19155 4.19946 9.27505 4.68138C9.28605 4.76225 9.27505 4.77323 9.20505 4.76225C6.52355 4.49019 4.04041 3.22831 2.24206 1.22381C2.16006 1.13195 2.11606 1.13195 2.04906 1.2308C1.68732 1.89709 1.55032 2.66206 1.6584 3.41222C1.76648 4.16238 2.11388 4.85778 2.64905 5.39526C2.78605 5.52405 2.92706 5.65385 3.07706 5.77167C2.60856 5.736 2.15178 5.60807 1.73305 5.39526C1.65205 5.34434 1.61106 5.37429 1.60406 5.46615C1.59891 5.59966 1.60627 5.73337 1.62605 5.86552C1.70812 6.49116 1.95502 7.08385 2.34153 7.58307C2.72804 8.08228 3.24032 8.47015 3.82606 8.70706C3.96932 8.76865 4.11887 8.81451 4.27206 8.84384C3.83794 8.92968 3.39259 8.94317 2.95405 8.88378C2.85405 8.86581 2.82206 8.91373 2.85406 9.00559C3.07957 9.59505 3.45224 10.1172 3.93669 10.5224C4.42114 10.9276 5.00129 11.2025 5.62205 11.321C5.74805 11.3429 5.87305 11.3429 5.99905 11.3719C5.99205 11.3839 5.98405 11.3839 5.97705 11.3938C5.43893 11.8774 4.78927 12.2204 4.08605 12.3923C3.16644 12.72 2.18673 12.8454 1.21406 12.7597C1.05906 12.7367 1.02705 12.7387 0.985053 12.7597C0.943053 12.7807 0.980051 12.8226 1.03005 12.8595C1.23005 12.9883 1.43005 13.1032 1.63005 13.214C2.24019 13.5383 2.88402 13.7951 3.55006 13.9798C5.26299 14.4944 7.0812 14.5513 8.82302 14.1446C10.5648 13.738 12.1693 12.8821 13.4761 11.6624C14.4171 10.6441 15.1449 9.44827 15.6166 8.1452C16.0884 6.84213 16.2945 5.45807 16.2231 4.07433C16.2231 3.9655 16.3521 3.9046 16.4291 3.84669C16.9452 3.44901 17.4004 2.9781 17.7801 2.44888C17.8398 2.37217 17.8715 2.27744 17.8701 2.18031V2.16832C17.8701 2.12339 17.8701 2.13637 17.8001 2.16832"
    fill="#1C70B6"
  />
</svg>
