<svg width="21" height="16" viewBox="0 0 21 16" fill="none" xmlns="http://www.w3.org/2000/svg">
<path d="M20.2 0.00470959C19.1957 0.538279 18.121 0.926935 17.0077 1.1591C16.4265 0.590806 15.6883 0.209708 14.8885 0.0649824C14.0886 -0.0797436 13.2637 0.0185431 12.5202 0.347161C11.7767 0.675779 11.1488 1.21965 10.7174 1.9086C10.286 2.59754 10.071 3.39996 10.1 4.2123V5.89564C6.73334 5.89564 3.45196 3.33173 1.40951 0.846377C1.04025 1.47281 0.846428 2.1871 0.848401 2.91426C0.848401 4.44498 2.25492 5.99888 3.36817 6.7373C2.48455 6.60328 1.63048 6.31859 0.843164 5.89564V5.94352C0.84821 6.85725 1.18468 7.7381 1.7901 8.42249C2.39552 9.10689 3.22873 9.54832 4.13502 9.66481C3.38328 9.99518 2.56474 10.1453 1.74468 10.1032C2.26839 11.7319 4.91983 12.5923 6.73334 12.6282C5.31186 13.728 2.78461 14.3116 0.842416 14.3116C0.561546 14.3249 0.28009 14.3192 0 14.2944C2.05012 15.458 4.3765 16.0464 6.73334 15.9971C14.3555 15.9971 18.5152 10.1751 18.5152 4.74573C18.5152 4.56767 18.5092 3.9699 18.5002 3.79483C19.1997 3.25121 19.7785 2.56818 20.2 1.78905C19.397 2.15251 18.5471 2.40182 17.675 2.52971C18.5294 2.02471 19.8881 0.962341 20.2 0.00470959Z" fill="white"/>
</svg>
