<svg width="21" height="17" viewBox="0 0 21 17" fill="none" xmlns="http://www.w3.org/2000/svg">
<path d="M20.1317 1.91775C19.3855 2.24877 18.5938 2.46598 17.7832 2.56214C18.6372 2.05135 19.2761 1.24713 19.5806 0.299682C18.7775 0.776165 17.8989 1.11197 16.9827 1.29261C16.4218 0.69429 15.6939 0.278437 14.8935 0.0990427C14.0932 -0.0803521 13.2575 -0.0150033 12.4948 0.286605C11.732 0.588214 11.0776 1.11215 10.6165 1.79039C10.1553 2.46864 9.90868 3.26986 9.90864 4.09003C9.90703 4.40324 9.94102 4.71562 10.01 5.02116C8.38372 4.93981 6.79278 4.51728 5.34049 3.78101C3.88819 3.04474 2.60702 2.01119 1.5802 0.747512C1.05805 1.64809 0.898272 2.71366 1.13331 3.72778C1.36835 4.7419 1.98059 5.62854 2.84568 6.2076C2.1968 6.18844 1.56186 6.01477 0.993561 5.70101V5.75268C0.993594 6.69693 1.32033 7.61209 1.91831 8.34286C2.5163 9.07363 3.3487 9.575 4.27428 9.76188C3.92289 9.85726 3.56034 9.9053 3.19624 9.90474C2.9382 9.9043 2.68075 9.87988 2.42723 9.83179C2.68904 10.6436 3.19789 11.3534 3.8827 11.8621C4.56751 12.3707 5.39408 12.6527 6.24696 12.6687C4.53316 14.0085 2.35962 14.6174 0.199219 14.3628C2.06913 15.5641 4.2453 16.2018 6.46784 16.1997C7.99882 16.2108 9.51672 15.9173 10.9333 15.3365C12.3498 14.7556 13.6368 13.899 14.7193 12.8163C15.8018 11.7336 16.6583 10.4465 17.2389 9.02981C17.8195 7.61314 18.1126 6.09519 18.1013 4.56421C18.1013 4.38723 18.0976 4.21094 18.0902 4.03532C18.891 3.4563 19.5824 2.73924 20.1317 1.91775Z" fill="#8D8D8D"/>
</svg>
