<svg width="18" height="18" viewBox="0 0 18 18" fill="none" xmlns="http://www.w3.org/2000/svg">
<path d="M3.33653 7.55125L1.45205 9.77119C1.41933 9.80957 1.39872 9.85949 1.39411 9.91286C1.39411 9.97183 1.29292 11.3299 2.01406 11.9793C2.4397 12.3642 3.04726 12.4138 3.80559 12.1257C3.83298 12.1153 3.85777 12.0975 3.87795 12.0738C4.07009 11.8588 4.65905 11.2922 5.06207 11.2472C5.13025 11.2472 5.22942 11.2472 5.34934 11.233C6.14081 11.207 7.88075 11.148 8.5089 9.68848C9.26074 11.889 9.76206 14.1907 10.0006 16.5371C10.0109 16.6292 10.0675 16.706 10.1453 16.7331C10.6373 16.9074 11.1491 16.9974 11.6641 17C13.5238 17 14.9931 15.7815 15.9604 14.6384C15.9885 14.6181 16.0117 14.5906 16.0284 14.558C16.5005 13.9876 16.9163 13.3596 17.2684 12.6854C17.2957 12.6204 17.2957 12.5448 17.2684 12.4799C14.954 6.14832 12.4226 4.28519 8.85 3.26971C8.37679 1.47249 7.2568 1.03083 7.20924 1.01206C7.14279 0.987023 7.06957 1.00185 7.01508 1.05209C6.1596 1.8385 6.06664 2.76893 5.96746 3.7514C5.94065 4.0041 5.91586 4.26159 5.87651 4.52845L5.21316 5.30777L0.667081 1.60247C0.588093 1.56096 0.494544 1.58023 0.433431 1.65106C0.372317 1.72206 0.356749 1.82898 0.394224 1.91876L3.33653 7.55125ZM16.8714 12.546C16.5917 13.0644 16.2714 13.5529 15.9148 14.0055C12.9929 6.58759 9.82701 4.85181 9.05838 4.52836C9.06026 4.28225 9.03749 4.03647 8.99021 3.79631C12.3005 4.78109 14.6811 6.62082 16.8714 12.546ZM5.47525 5.69739L6.24192 4.7953C6.27003 4.76104 6.2892 4.71837 6.29771 4.67241C6.34527 4.36782 6.3741 4.07725 6.40105 3.79622C6.49402 2.87751 6.5684 2.14314 7.20492 1.50066C7.47144 1.64941 8.18852 2.1571 8.51085 3.51746C8.60843 3.87641 8.65037 4.25201 8.63481 4.62742C8.61376 4.74997 8.67992 4.87007 8.78572 4.90136C8.82089 4.90136 12.3875 6.06323 15.6048 14.3642C14.4827 15.6868 12.6828 17.0328 10.3994 16.3245C9.87036 11.7287 8.72561 9.04108 8.67602 8.92806C8.63724 8.83696 8.55191 8.78408 8.46399 8.79693C8.37592 8.80978 8.305 8.88539 8.28756 8.98472C7.98789 10.6686 6.20257 10.7299 5.34291 10.7582C5.21059 10.7582 5.10118 10.7582 5.02883 10.7747C4.46466 10.8362 3.80349 11.5091 3.63198 11.6934C3.03062 11.9107 2.57195 11.8824 2.2703 11.6084C1.81148 11.1928 1.79491 10.3072 1.81148 10.0357L3.68976 7.82286C4.36131 7.76619 4.85311 7.53705 5.15078 7.13559C5.4222 6.73118 5.53923 6.21853 5.4751 5.71395L5.47525 5.69739ZM5.06201 5.73759C5.1126 6.11449 5.02929 6.49866 4.83052 6.80486C4.61359 7.09776 4.23536 7.27714 3.70434 7.32442L3.36546 6.67506C3.78605 6.19502 4.01092 5.53529 3.98542 4.85659L5.06201 5.73759ZM3.01838 4.13887V4.07512L3.54941 4.51661C3.58242 4.78825 3.6444 5.66431 3.15056 6.26887L2.5306 5.08808C2.79668 4.86437 2.97384 4.52863 3.0224 4.1552L3.01838 4.13887ZM2.50381 3.66642C2.60053 3.77992 2.64074 3.94136 2.61134 4.09619C2.58251 4.32781 2.47931 4.53916 2.32205 4.68891L1.25583 2.64853L2.50381 3.66642Z" fill="#999999" stroke="#999999" stroke-width="0.2"/>
</svg>
