<svg
  width="16"
  height="16"
  viewBox="0 0 16 16"
  fill="none"
  xmlns="http://www.w3.org/2000/svg"
>
<path
    d="M0.689453 13.5464C0.689453 13.0609 0.875511 12.5752 1.24762 12.2048L12.3914 1.10841C12.747 0.754388 13.2362 0.552734 13.7387 0.552734C14.7911 0.552734 15.6441 1.40249 15.6441 2.45036C15.6441 2.93583 15.458 3.42165 15.0859 3.79208L3.94236 14.8879C3.57047 15.2583 3.0828 15.4436 2.59513 15.4436C1.54347 15.4436 0.689453 14.5932 0.689453 13.5464ZM1.58207 13.5464C1.58207 14.1047 2.03568 14.5549 2.59496 14.5549C2.86452 14.5549 3.12051 14.4493 3.31129 14.2594L14.4545 3.16363C14.6521 2.96687 14.7511 2.7085 14.7511 2.45036C14.7511 1.89334 14.298 1.44166 13.7384 1.44166C13.4668 1.44166 13.2142 1.54579 13.0224 1.73686L1.87852 12.8332C1.68092 13.03 1.58207 13.2882 1.58207 13.5464Z"
    fill="#999999"
  />
<path
    d="M7.72086 2.47876C7.72086 1.60066 7.00612 0.888927 6.12424 0.888927C5.24235 0.888927 4.52761 1.60063 4.52761 2.47876C4.52761 3.35686 5.24235 4.06859 6.12424 4.06859C7.00612 4.06859 7.72086 3.35688 7.72086 2.47876ZM8.61348 2.47876C8.61348 3.84759 7.49881 4.95751 6.12412 4.95751C4.74944 4.95751 3.63477 3.84759 3.63477 2.47876C3.63477 1.10992 4.74944 0 6.12412 0C7.49881 0 8.61348 1.10992 8.61348 2.47876Z"
    fill="#999999"
  />
<path
    d="M11.8063 13.5215C11.8063 12.6422 11.0928 11.9319 10.2099 11.9319C9.32686 11.9319 8.61355 12.6424 8.61355 13.5215C8.61355 14.4008 9.32706 15.1111 10.2099 15.1111C11.093 15.1111 11.8063 14.4006 11.8063 13.5215ZM12.699 13.5215C12.699 14.888 11.5831 16 10.2098 16C8.8375 16 7.7207 14.8889 7.7207 13.5215C7.7207 12.155 8.83661 11.043 10.2098 11.043C11.5822 11.043 12.699 12.1541 12.699 13.5215Z"
    fill="#999999"
  />
</svg>
