<svg width="17" height="17" viewBox="0 0 17 17" fill="none" xmlns="http://www.w3.org/2000/svg">
<path fill-rule="evenodd" clip-rule="evenodd" d="M14.2541 2.90912C14.9876 3.80177 15.5182 4.84326 15.8091 5.9614C16.1826 7.40186 16.1456 8.91812 15.7021 10.3386C15.2586 11.7591 14.4264 13.0271 13.2996 13.9991C12.1729 14.9712 10.7965 15.6085 9.32637 15.8389C7.85622 16.0694 6.3509 15.8837 4.98077 15.3031C4.45668 15.4526 3.92544 15.5947 3.3941 15.7368C2.84869 15.8828 2.30318 16.0287 1.76521 16.1827C1.4318 16.2729 0.946373 16.0003 1.00718 15.6061C1.08318 15.0603 1.15134 14.5144 1.21949 13.9684C1.28764 13.4224 1.35579 12.8764 1.4318 12.3307C0.799085 11.364 0.384186 10.2712 0.215866 9.12821C0.0475455 7.98518 0.129833 6.81922 0.457019 5.71116C0.784204 4.6031 1.34846 3.57945 2.11067 2.71118C2.87289 1.84291 3.81481 1.1508 4.87115 0.682831C5.92749 0.21486 7.07297 -0.0177716 8.22817 0.00105836C9.38338 0.0198883 10.5207 0.28973 11.5612 0.79188C12.6017 1.29403 13.5206 2.01647 14.2541 2.90912ZM10.957 7.90595L12.322 8.968C12.4698 9.06908 12.5911 9.20428 12.6756 9.36216C12.7601 9.52004 12.8054 9.69595 12.8075 9.87501C12.8194 10.0534 12.7931 10.2323 12.7303 10.3997C12.6676 10.5671 12.5699 10.7192 12.4437 10.8459L11.261 12.0285C11.0641 12.2324 10.8279 12.394 10.5665 12.5036C10.3052 12.6132 10.0243 12.6684 9.74087 12.6659C9.39183 12.6728 9.04695 12.5894 8.73963 12.4237C7.67131 11.8485 6.69085 11.1234 5.82809 10.2702C4.96811 9.41338 4.24213 8.43185 3.67459 7.3587C3.46533 6.94621 3.3908 6.47846 3.46153 6.02137C3.53226 5.56428 3.74466 5.14093 4.0688 4.81098L5.25146 3.62832C5.37809 3.5021 5.53019 3.40437 5.69761 3.34163C5.86503 3.27889 6.04391 3.2526 6.2223 3.26451C6.40222 3.26581 6.57915 3.31065 6.73798 3.39518C6.8968 3.47971 7.03281 3.60143 7.13438 3.74994L8.19643 5.14541C8.34551 5.34683 8.41818 5.59466 8.40147 5.84468C8.38477 6.09471 8.27977 6.33068 8.10523 6.51048L7.71101 6.90469C7.88875 7.21225 8.10276 7.49737 8.34845 7.75393C8.61087 7.99262 8.8952 8.20605 9.19769 8.39136L9.5919 7.99715C9.76798 7.81602 10.0049 7.70647 10.2569 7.68963C10.509 7.67279 10.7584 7.74985 10.957 7.90595ZM10.4118 11.1823L11.5944 9.99966L11.5954 9.93986C11.5956 9.93583 11.5949 9.93181 11.5934 9.92806C11.5919 9.92431 11.5897 9.92091 11.5868 9.91806C11.584 9.9152 11.5806 9.91296 11.5768 9.91148C11.5731 9.91001 11.5691 9.90932 11.565 9.90946L10.3216 8.93862L9.89695 9.36323C9.75114 9.51526 9.55958 9.61539 9.35152 9.64833C9.14346 9.68126 8.93033 9.64521 8.74469 9.54565C7.8009 9.04675 7.02928 8.27513 6.53038 7.33134C6.43132 7.14037 6.3956 6.92282 6.4284 6.71021C6.46119 6.49759 6.5608 6.30093 6.7128 6.14868L7.10701 5.78487L6.13617 4.51101C6.13617 4.49581 6.13617 4.4882 6.13237 4.48441C6.12857 4.48061 6.12097 4.48061 6.10577 4.48061H6.07535L4.8927 5.66327C4.74854 5.80754 4.65337 5.99347 4.62064 6.19478C4.58791 6.39609 4.61927 6.6026 4.7103 6.78511C5.73645 8.74122 7.3338 10.3386 9.28991 11.3647C9.47243 11.4557 9.67894 11.4871 9.88025 11.4544C10.0816 11.4216 10.2675 11.3265 10.4118 11.1823Z" fill="#8D8D8D"/>
</svg>
